<svg xmlns="http://www.w3.org/2000/svg" viewBox="0 0 64 64" width="64" height="64" role="img" aria-labelledby="title"><title id="title">Cartographe</title><rect x="2" y="2" width="60" height="60" rx="15" fill="#111d2a" stroke="#d98662" stroke-width="1.5"/><path d="M9 17V9H17M47 9H55V17M9 47V55H17M47 55H55V47" fill="none" stroke="#d98662" stroke-width="2.5"/><g fill="none" stroke="#efc897" stroke-width="2.8" stroke-linecap="round" stroke-linejoin="round"><path d="M18 49L33 15L45 49M24 35H39M29 15H37M15 49L21 51M42 49L48 47M14 27L20 24M43 23L50 26"/><circle cx="33" cy="20" r="3"/><path d="M27 46Q32 42 38 45"/></g></svg>
