<svg xmlns="http://www.w3.org/2000/svg" viewBox="0 0 64 64" width="64" height="64" role="img" aria-labelledby="title"><title id="title">Ébranleur</title><rect x="2" y="2" width="60" height="60" rx="15" fill="#111d2a" stroke="#d98662" stroke-width="1.5"/><path d="M9 17V9H17M47 9H55V17M9 47V55H17M47 55H55V47" fill="none" stroke="#d98662" stroke-width="2.5"/><g fill="none" stroke="#efc897" stroke-width="2.8" stroke-linecap="round" stroke-linejoin="round"><g transform="translate(0 -4) scale(1 .85)"><path d="M29 50V30M35 50V30M27 50H37M26 15L23 23L27 31H37L41 23L38 15ZM32 15V31"/></g><path d="M12 45H27L23 51H34L30 56M37 45H51M17 39L12 34M47 39L52 34"/></g></svg>
