<svg xmlns="http://www.w3.org/2000/svg" viewBox="0 0 64 64" width="64" height="64" role="img" aria-labelledby="title"><title id="title">Porte-Lanterne</title><rect x="2" y="2" width="60" height="60" rx="15" fill="#111d2a" stroke="#75b799" stroke-width="1.5"/><path d="M9 17V9H17M47 9H55V17M9 47V55H17M47 55H55V47" fill="none" stroke="#75b799" stroke-width="2.5"/><g fill="none" stroke="#b6e6c1" stroke-width="2.8" stroke-linecap="round" stroke-linejoin="round"><path d="M20 23H44V48H20ZM24 23V16Q32 7 40 16V23M17 48H47M17 23H47M26 29L32 38L38 29M26 42L32 36L38 42"/><path d="M11 30L6 27M53 30L58 27"/></g></svg>
