<svg xmlns="http://www.w3.org/2000/svg" viewBox="0 0 340 340" role="img" aria-label="Nuages Polaires">
  <defs>
    <radialGradient id="np-favicon-halo" cx="50%" cy="50%" r="54%">
      <stop offset="0" stop-color="#7eb8d4" stop-opacity=".24"/>
      <stop offset=".62" stop-color="#4a7d96" stop-opacity=".1"/>
      <stop offset="1" stop-color="#09090f" stop-opacity="0"/>
    </radialGradient>
    <linearGradient id="np-favicon-needle" x1="82" y1="58" x2="258" y2="282" gradientUnits="userSpaceOnUse">
      <stop offset="0" stop-color="#e7f7ff"/>
      <stop offset=".52" stop-color="#b8dfef"/>
      <stop offset="1" stop-color="#7eb8d4"/>
    </linearGradient>
    <linearGradient id="np-favicon-ring" x1="52" y1="52" x2="288" y2="288" gradientUnits="userSpaceOnUse">
      <stop offset="0" stop-color="#d4eef8" stop-opacity=".72"/>
      <stop offset=".5" stop-color="#4a7d96" stop-opacity=".2"/>
      <stop offset="1" stop-color="#7eb8d4" stop-opacity=".72"/>
    </linearGradient>
    <filter id="np-favicon-shadow" x="-24%" y="-24%" width="148%" height="148%">
      <feDropShadow dx="0" dy="5" stdDeviation="5" flood-color="#02040a" flood-opacity=".42"/>
    </filter>
  </defs>
  <circle cx="170" cy="170" r="148" fill="url(#np-favicon-halo)"/>
  <g transform="translate(170 170)" fill="none" stroke="#7eb8d4" stroke-linecap="round">
    <circle r="116" stroke="url(#np-favicon-ring)" stroke-width="2" opacity=".78"/>
    <circle r="128" stroke-width="1.2" stroke-dasharray="8 14" opacity=".34"/>
    <path d="M0-132v-34M94-94l24-24M132 0h34M94 94l24 24M0 132v34M-94 94l-24 24M-132 0h-34M-94-94l-24-24" stroke-width="1.6" opacity=".52"/>
  </g>
  <g transform="translate(170 170)" filter="url(#np-favicon-shadow)">
    <path d="M0-118 20-34 0-16-20-34z" fill="url(#np-favicon-needle)"/>
    <path d="M118 0 34 20 16 0 34-20z" fill="url(#np-favicon-needle)" opacity=".95"/>
    <path d="M0 118 20 34 0 16-20 34z" fill="url(#np-favicon-needle)" opacity=".88"/>
    <path d="M-118 0-34 20-16 0-34-20z" fill="url(#np-favicon-needle)" opacity=".95"/>
    <path d="M82-82 27-17 12-12 17-27zM82 82 17 27 12 12 27 17zM-82 82-27 17-12 12-17 27zM-82-82-17-27-12-12-27-17z" fill="#d4eef8" opacity=".82"/>
    <rect x="-22" y="-22" width="44" height="44" rx="2" transform="rotate(45)" fill="#09090f" stroke="#7eb8d4" stroke-width="4"/>
    <rect x="-11" y="-11" width="22" height="22" rx="2" transform="rotate(45)" fill="#e7f7ff"/>
  </g>
</svg>
